<?xml version="1.0" standalone="no"?>
<!DOCTYPE svg PUBLIC "-//W3C//DTD SVG 20010904//EN"
 "http://www.w3.org/TR/2001/REC-SVG-20010904/DTD/svg10.dtd">
<svg version="1.0" xmlns="http://www.w3.org/2000/svg"
 width="400.000000pt" height="400.000000pt" viewBox="0 0 400.000000 400.000000"
 preserveAspectRatio="xMidYMid meet">

<g transform="translate(0.000000,400.000000) scale(0.100000,-0.100000)"
fill="#000000" stroke="none">
<path d="M1835 3825 c-129 -21 -293 -65 -390 -106 -49 -20 -101 -40 -114 -44
-27 -8 -74 -38 -154 -97 -123 -90 -176 -139 -207 -186 -19 -30 -45 -56 -68
-66 -76 -36 -177 -119 -232 -191 -35 -46 -71 -147 -82 -229 -17 -133 0 -237
58 -356 45 -93 46 -97 49 -205 4 -168 43 -274 209 -575 84 -151 151 -245 174
-245 12 0 25 -23 47 -87 30 -88 29 -114 -2 -86 -10 9 -44 30 -75 48 -49 27
-64 31 -98 25 -67 -11 -53 -36 35 -63 83 -25 118 -53 175 -137 19 -29 54 -77
76 -106 23 -30 62 -86 88 -124 l46 -69 -27 -29 c-29 -29 -45 -31 -113 -12 -21
6 -20 4 8 -14 18 -12 42 -21 53 -21 21 0 25 2 73 45 34 30 55 31 82 7 17 -15
110 -83 189 -138 45 -31 195 -101 278 -130 71 -24 220 -58 307 -69 106 -14
303 -6 385 15 102 26 226 69 245 85 8 7 39 25 68 39 67 34 232 171 232 193 0
4 12 20 27 35 40 42 96 144 178 323 35 76 84 279 71 292 -11 11 -19 -6 -18
-37 0 -18 -3 -28 -10 -24 -6 4 -9 -3 -8 -17 4 -42 0 -60 -10 -54 -6 4 -10 -6
-10 -22 0 -33 -34 -126 -42 -117 -4 3 -4 -4 -1 -17 5 -17 3 -20 -7 -14 -10 6
-12 4 -7 -9 8 -20 -15 -60 -28 -48 -4 4 -4 -3 -1 -15 5 -14 3 -23 -3 -23 -8 0
-60 -86 -66 -110 -6 -20 -21 -46 -37 -62 -10 -10 -16 -23 -13 -28 4 -6 -1 -7
-11 -3 -14 5 -16 3 -11 -11 4 -9 3 -15 -2 -11 -5 3 -12 -3 -15 -12 -9 -28 -52
-74 -61 -65 -5 4 -4 1 0 -7 6 -11 4 -13 -8 -8 -11 4 -17 1 -17 -7 0 -10 -76
-60 -115 -75 -32 -12 -121 -55 -125 -61 -3 -4 -22 -10 -44 -14 -21 -4 -46 -11
-55 -16 -23 -12 -53 -22 -76 -25 -11 -1 -45 -8 -75 -15 -87 -19 -235 -13 -251
11 -3 5 -23 11 -45 13 -21 2 -59 11 -82 20 -24 9 -73 21 -108 27 -35 6 -64 15
-64 19 0 5 -17 14 -37 20 -44 14 -116 52 -121 63 -2 4 -11 7 -19 7 -9 0 -42
18 -74 40 -32 22 -62 40 -66 40 -20 0 -177 160 -221 225 -22 33 -49 70 -61 82
-12 12 -21 28 -21 35 0 7 -9 28 -21 47 -20 33 -28 56 -32 91 -1 8 -11 23 -22
32 -20 17 -20 17 -1 18 19 0 18 1 -3 21 -37 35 -17 32 53 -6 85 -47 152 -65
246 -65 142 0 239 36 339 126 75 68 118 139 140 236 20 86 21 107 2 218 -15
92 -15 93 30 150 47 59 88 80 156 80 88 0 115 -14 166 -84 88 -119 171 -179
292 -211 110 -28 227 -14 334 40 93 47 141 92 181 171 19 38 39 72 44 76 5 3
13 34 17 68 5 34 16 71 24 83 17 24 20 57 6 57 -5 0 -14 -12 -19 -27 -6 -17
-11 -21 -11 -11 -2 47 -55 181 -97 243 -35 53 -53 95 -74 175 -54 199 -79 262
-151 371 -50 77 -89 119 -150 165 -36 26 -49 44 -58 76 -12 47 -26 67 -56 84
-12 6 -29 37 -41 75 -26 81 -83 147 -150 173 -27 11 -65 30 -84 43 -43 27
-160 69 -253 88 -82 18 -242 18 -352 0z m654 -555 c111 -21 216 -92 329 -225
27 -31 101 -142 127 -190 15 -27 36 -64 46 -82 l20 -31 -45 13 c-24 7 -64 16
-89 18 -25 3 -60 13 -78 22 -66 35 -192 29 -289 -12 -141 -61 -220 -109 -220
-136 0 -33 29 -29 132 21 112 54 226 98 233 90 3 -3 -21 -19 -52 -36 -63 -34
-136 -103 -176 -168 -39 -62 -60 -156 -60 -262 0 -86 -1 -92 -19 -86 -34 10
-135 5 -170 -9 -44 -19 -95 -63 -114 -98 -19 -37 -26 -36 -55 6 -25 37 -127
123 -169 142 -104 49 -202 63 -303 44 -77 -14 -172 -60 -230 -111 -53 -47 -65
-41 -14 7 61 59 187 119 377 181 70 22 86 31 88 50 3 20 -1 22 -36 22 -101 0
-356 -107 -433 -181 -47 -46 -91 -132 -91 -178 0 -20 -9 -56 -20 -80 -10 -24
-24 -67 -30 -97 -6 -29 -15 -51 -20 -48 -5 3 -6 14 -3 23 3 10 -1 24 -10 31
-8 7 -15 17 -15 22 0 6 -11 24 -25 42 -14 17 -29 36 -34 42 -5 6 -7 24 -5 40
4 24 3 25 -5 9 -7 -17 -10 -14 -16 20 -4 22 -16 73 -26 114 -11 42 -19 113
-20 165 -2 170 47 302 152 406 52 52 186 150 204 150 3 0 43 15 88 34 45 18
107 43 137 54 92 35 443 172 475 186 48 21 187 66 236 75 62 12 167 13 228 1z
m432 -546 c30 -9 74 -27 99 -39 48 -25 107 -81 90 -87 -10 -3 8 -64 36 -125 8
-17 17 -45 20 -62 4 -17 13 -31 20 -31 10 0 13 7 9 23 -18 82 -25 114 -24 132
0 20 0 20 14 1 34 -45 69 -161 68 -227 -1 -244 -197 -425 -438 -406 -176 14
-311 113 -385 279 -56 128 -17 317 89 431 97 106 264 152 402 111z m224 -144
c3 -5 1 -10 -4 -10 -6 0 -11 5 -11 10 0 6 2 10 4 10 3 0 8 -4 11 -10z m-1350
-354 c69 -31 149 -97 190 -156 31 -44 64 -173 65 -249 0 -47 -22 -144 -43
-183 -30 -59 -93 -128 -150 -165 -128 -82 -237 -101 -353 -63 -137 45 -222
121 -277 247 -27 61 -30 79 -30 168 -1 94 2 105 36 178 57 122 166 217 284
247 21 5 79 8 129 6 73 -2 102 -8 149 -30z"/>
<path d="M2812 2359 c-66 -21 -147 -65 -197 -106 -48 -40 -115 -126 -115 -148
0 -18 1 -18 17 -2 16 15 18 14 35 -14 18 -30 21 -31 71 -24 78 10 171 56 286
142 9 7 -20 81 -39 98 -11 10 -17 22 -14 26 9 14 97 10 128 -6 35 -18 36 -18
36 0 0 46 -112 65 -208 34z m-152 -139 c0 -21 -34 -45 -51 -34 -7 4 -2 15 12
30 27 29 39 30 39 4z"/>
<path d="M1685 1902 c-133 -40 -244 -113 -280 -185 -33 -66 -4 -63 50 5 48 61
65 70 65 34 0 -15 7 -42 15 -62 14 -33 16 -35 52 -29 98 17 213 50 266 78 63
33 66 41 42 115 -6 18 -4 22 14 22 12 0 38 -7 57 -15 45 -19 42 1 -5 29 -48
28 -196 32 -276 8z m-25 -81 c0 -18 -34 -51 -52 -51 -10 0 -38 30 -38 41 0 12
37 28 68 28 15 1 22 -5 22 -18z"/>
<path d="M3433 1753 c9 -2 25 -2 35 0 9 3 1 5 -18 5 -19 0 -27 -2 -17 -5z"/>
<path d="M3415 1710 c3 -5 11 -10 16 -10 6 0 7 5 4 10 -3 6 -11 10 -16 10 -6
0 -7 -4 -4 -10z"/>
<path d="M2577 1642 c-38 -70 -146 -120 -232 -107 -37 5 -54 15 -87 50 -23 24
-46 41 -51 38 -19 -12 5 -78 40 -110 58 -53 148 -56 242 -10 75 36 114 87 109
140 l-3 32 -18 -33z"/>
<path d="M3421 1574 c0 -11 3 -14 6 -6 3 7 2 16 -1 19 -3 4 -6 -2 -5 -13z"/>
<path d="M2900 1538 c-88 -51 -311 -160 -385 -188 -33 -12 -69 -26 -80 -30
-48 -19 -126 -40 -147 -40 -13 0 -36 -9 -53 -20 -16 -11 -41 -20 -54 -20 -30
0 -119 -41 -126 -58 -7 -18 23 -72 53 -97 14 -11 41 -25 61 -31 37 -12 60 -6
148 32 17 8 34 14 37 14 3 0 30 11 60 25 30 14 58 25 61 25 6 0 118 47 180 75
160 74 248 107 254 96 19 -30 71 83 71 152 0 39 -22 88 -38 86 -4 0 -23 -10
-42 -21z m-40 -128 c13 -9 11 -13 -10 -30 -56 -44 -359 -175 -520 -226 -53
-16 -114 -19 -105 -4 4 6 12 7 18 4 7 -4 9 -3 4 1 -8 9 20 45 36 45 6 0 24 10
41 23 29 21 61 36 181 85 28 11 93 39 146 61 60 26 104 39 115 34 12 -4 15 -3
10 5 -9 15 62 16 84 2z"/>
<path d="M2685 1130 c-13 -6 -15 -9 -5 -9 8 0 22 4 30 9 18 12 2 12 -25 0z"/>
<path d="M2595 1090 c-22 -11 -32 -18 -22 -15 11 3 30 8 43 11 13 3 24 10 24
15 0 11 2 12 -45 -11z"/>
<path d="M1170 926 c0 -2 8 -10 18 -17 15 -13 16 -12 3 4 -13 16 -21 21 -21
13z"/>
</g>
</svg>
